<svg width="88" height="88" viewBox="0 0 88 88" fill="none" xmlns="http://www.w3.org/2000/svg">
<path d="M44 0.25C19.8398 0.25 0.25 19.8398 0.25 44C0.25 68.1602 19.8398 87.75 44 87.75C68.1602 87.75 87.75 68.1602 87.75 44C87.75 19.8398 68.1602 0.25 44 0.25ZM62.8965 29.7129L42.3301 58.2285C42.0426 58.6297 41.6637 58.9566 41.2247 59.1822C40.7857 59.4077 40.2992 59.5253 39.8057 59.5253C39.3121 59.5253 38.8257 59.4077 38.3867 59.1822C37.9476 58.9566 37.5687 58.6297 37.2812 58.2285L25.1035 41.3535C24.7324 40.8359 25.1035 40.1133 25.7383 40.1133H30.3184C31.3145 40.1133 32.2617 40.5918 32.8477 41.4121L39.8008 51.0605L55.1523 29.7715C55.7383 28.9609 56.6758 28.4727 57.6816 28.4727H62.2617C62.8965 28.4727 63.2676 29.1953 62.8965 29.7129Z" fill="#0AC545"/>
</svg>
